<svg height="485pt" viewBox="0 0 485 485" width="485pt" xmlns="http://www.w3.org/2000/svg"><path d="m90.5625 236.875 72.585938 27.089844 28.09375 90.351562c1.796874 5.785156 8.871093 7.921875 13.566406 4.082032l40.460937-32.980469c4.242188-3.457031 10.28125-3.628907 14.710938-.410157l72.976562 52.980469c5.023438 3.648438 12.140625.898438 13.402344-5.171875l53.457031-257.136718c1.375-6.632813-5.140625-12.164063-11.453125-9.722657l-297.882812 114.914063c-7.351563 2.835937-7.289063 13.242187.082031 16.003906zm96.152344 12.671875 141.851562-87.367187c2.546875-1.566407 5.171875 1.882812 2.980469 3.914062l-117.066406 108.820312c-4.117188 3.828126-6.769531 8.957032-7.523438 14.519532l-3.984375 29.554687c-.53125 3.945313-6.074218 4.335938-7.164062.515625l-15.335938-53.890625c-1.753906-6.144531.804688-12.710937 6.242188-16.066406zm0 0"/><path d="m0 0v485h485v-485zm455 455h-425v-425h425zm0 0"/></svg>