<svg height="485pt" viewBox="0 0 485 485" width="485pt" xmlns="http://www.w3.org/2000/svg"><path d="m85 341.457031c28.597656 18.339844 62.566406 29.039063 99.066406 29.039063 118.871094 0 183.871094-98.472656 183.871094-183.878906 0-2.796876-.0625-5.585938-.183594-8.359376 12.628906-9.109374 23.582032-20.492187 32.246094-33.453124-11.589844 5.140624-24.042969 8.617187-37.117188 10.179687 13.34375-8 23.589844-20.664063 28.414063-35.753906-12.488281 7.402343-26.316406 12.785156-41.035156 15.679687-11.789063-12.558594-28.585938-20.40625-47.175781-20.40625-35.6875 0-64.625 28.9375-64.625 64.625 0 5.0625.574218 9.996094 1.675781 14.726563-53.707031-2.695313-101.328125-28.421875-133.203125-67.523438-5.5625 9.546875-8.75 20.644531-8.75 32.492188 0 22.417969 11.40625 42.199219 28.75 53.789062-10.597656-.335937-20.5625-3.246093-29.273438-8.085937-.003906.273437-.003906.542968-.003906.816406 0 31.308594 22.277344 57.429688 51.839844 63.367188-5.421875 1.472656-11.132813 2.269531-17.027344 2.269531-4.164062 0-8.210938-.40625-12.160156-1.164063 8.222656 25.675782 32.09375 44.359375 60.371094 44.878906-22.117188 17.335938-49.984376 27.667969-80.261719 27.667969-5.21875 0-10.363281-.304687-15.417969-.90625zm0 0"/><path d="m0 0v485h485v-485zm455 455h-425v-425h425zm0 0"/></svg>